<mxfile host="app.diagrams.net" agent="Mozilla/5.0 (Windows NT 10.0; Win64; x64) AppleWebKit/537.36 (KHTML, like Gecko) Chrome/131.0.0.0 Safari/537.36" version="24.8.9">
  <diagram name="Seite-1" id="_EzoVK6YD9vsV-RopgzG">
    <mxGraphModel dx="1483" dy="710" grid="1" gridSize="10" guides="1" tooltips="1" connect="1" arrows="1" fold="1" page="1" pageScale="1" pageWidth="827" pageHeight="1169" math="0" shadow="0">
      <root>
        <mxCell id="0" />
        <mxCell id="1" parent="0" />
        <mxCell id="XZ7uIE0cHZyx9k-Q1iMx-433" value="" style="shape=table;startSize=0;container=1;collapsible=0;childLayout=tableLayout;" vertex="1" parent="1">
          <mxGeometry x="-490" y="180" width="1000" height="720" as="geometry" />
        </mxCell>
        <mxCell id="XZ7uIE0cHZyx9k-Q1iMx-434" value="" style="shape=tableRow;horizontal=0;startSize=0;swimlaneHead=0;swimlaneBody=0;strokeColor=inherit;top=0;left=0;bottom=0;right=0;collapsible=0;dropTarget=0;fillColor=none;points=[[0,0.5],[1,0.5]];portConstraint=eastwest;" vertex="1" parent="XZ7uIE0cHZyx9k-Q1iMx-433">
          <mxGeometry width="1000" height="720" as="geometry" />
        </mxCell>
        <mxCell id="XZ7uIE0cHZyx9k-Q1iMx-435" value="" style="shape=partialRectangle;html=1;whiteSpace=wrap;connectable=0;strokeColor=inherit;overflow=hidden;fillColor=none;top=0;left=0;bottom=0;right=0;pointerEvents=1;" vertex="1" parent="XZ7uIE0cHZyx9k-Q1iMx-434">
          <mxGeometry width="1000" height="720" as="geometry">
            <mxRectangle width="1000" height="720" as="alternateBounds" />
          </mxGeometry>
        </mxCell>
        <mxCell id="XZ7uIE0cHZyx9k-Q1iMx-429" value="&lt;span id=&quot;docs-internal-guid-49c4cdb1-7fff-00f1-d683-0dc7a767fc57&quot;&gt;&lt;span style=&quot;font-size: 11pt; font-family: Arial, sans-serif; background-color: transparent; font-variant-numeric: normal; font-variant-east-asian: normal; font-variant-alternates: normal; font-variant-position: normal; font-variant-emoji: normal; vertical-align: baseline; white-space: pre-wrap;&quot;&gt;Verwaltung (Admins)&lt;/span&gt;&lt;/span&gt;" style="shape=umlActor;verticalLabelPosition=bottom;verticalAlign=top;html=1;outlineConnect=0;" vertex="1" parent="1">
          <mxGeometry x="-380" y="240" width="30" height="60" as="geometry" />
        </mxCell>
        <mxCell id="XZ7uIE0cHZyx9k-Q1iMx-430" value="&lt;span id=&quot;docs-internal-guid-49c4cdb1-7fff-00f1-d683-0dc7a767fc57&quot;&gt;&lt;span style=&quot;font-size: 11pt; font-family: Arial, sans-serif; background-color: transparent; font-variant-numeric: normal; font-variant-east-asian: normal; font-variant-alternates: normal; font-variant-position: normal; font-variant-emoji: normal; vertical-align: baseline; white-space: pre-wrap;&quot;&gt;KÃ¼chenpersonal&lt;/span&gt;&lt;/span&gt;" style="shape=umlActor;verticalLabelPosition=bottom;verticalAlign=top;html=1;outlineConnect=0;" vertex="1" parent="1">
          <mxGeometry x="-380" y="370" width="30" height="60" as="geometry" />
        </mxCell>
        <mxCell id="XZ7uIE0cHZyx9k-Q1iMx-438" value="&lt;span id=&quot;docs-internal-guid-49c4cdb1-7fff-00f1-d683-0dc7a767fc57&quot;&gt;&lt;span style=&quot;font-size: 11pt; font-family: Arial, sans-serif; background-color: transparent; font-variant-numeric: normal; font-variant-east-asian: normal; font-variant-alternates: normal; font-variant-position: normal; font-variant-emoji: normal; vertical-align: baseline; white-space: pre-wrap;&quot;&gt;Gruppenleitung&lt;/span&gt;&lt;/span&gt;" style="shape=umlActor;verticalLabelPosition=bottom;verticalAlign=top;html=1;outlineConnect=0;" vertex="1" parent="1">
          <mxGeometry x="-380" y="490" width="30" height="60" as="geometry" />
        </mxCell>
        <mxCell id="XZ7uIE0cHZyx9k-Q1iMx-439" value="&lt;span id=&quot;docs-internal-guid-49c4cdb1-7fff-00f1-d683-0dc7a767fc57&quot;&gt;&lt;span style=&quot;font-size: 11pt; font-family: Arial, sans-serif; background-color: transparent; font-variant-numeric: normal; font-variant-east-asian: normal; font-variant-alternates: normal; font-variant-position: normal; font-variant-emoji: normal; vertical-align: baseline; white-space: pre-wrap;&quot;&gt;Standortleitung&lt;/span&gt;&lt;/span&gt;" style="shape=umlActor;verticalLabelPosition=bottom;verticalAlign=top;html=1;outlineConnect=0;" vertex="1" parent="1">
          <mxGeometry x="-380" y="610" width="30" height="60" as="geometry" />
        </mxCell>
        <mxCell id="XZ7uIE0cHZyx9k-Q1iMx-441" value="Anlegen Nutzerkonten" style="ellipse;whiteSpace=wrap;html=1;" vertex="1" parent="1">
          <mxGeometry x="-170" y="230" width="120" height="80" as="geometry" />
        </mxCell>
        <mxCell id="XZ7uIE0cHZyx9k-Q1iMx-443" value="Verwalten Nutzerkonten" style="ellipse;whiteSpace=wrap;html=1;" vertex="1" parent="1">
          <mxGeometry x="-170" y="320" width="120" height="80" as="geometry" />
        </mxCell>
        <mxCell id="XZ7uIE0cHZyx9k-Q1iMx-445" value="" style="endArrow=none;html=1;rounded=0;entryX=0;entryY=0.5;entryDx=0;entryDy=0;exitX=0.5;exitY=0.5;exitDx=0;exitDy=0;exitPerimeter=0;" edge="1" parent="1" source="XZ7uIE0cHZyx9k-Q1iMx-429" target="XZ7uIE0cHZyx9k-Q1iMx-441">
          <mxGeometry width="50" height="50" relative="1" as="geometry">
            <mxPoint x="-250" y="330" as="sourcePoint" />
            <mxPoint x="-190" y="280" as="targetPoint" />
            <Array as="points">
              <mxPoint x="-270" y="270" />
            </Array>
          </mxGeometry>
        </mxCell>
        <mxCell id="XZ7uIE0cHZyx9k-Q1iMx-446" value="" style="endArrow=none;html=1;rounded=0;entryX=0;entryY=0.5;entryDx=0;entryDy=0;exitX=0.5;exitY=0.5;exitDx=0;exitDy=0;exitPerimeter=0;" edge="1" parent="1" source="XZ7uIE0cHZyx9k-Q1iMx-429" target="XZ7uIE0cHZyx9k-Q1iMx-443">
          <mxGeometry width="50" height="50" relative="1" as="geometry">
            <mxPoint x="-320" y="330" as="sourcePoint" />
            <mxPoint x="-140" y="330" as="targetPoint" />
            <Array as="points" />
          </mxGeometry>
        </mxCell>
        <mxCell id="XZ7uIE0cHZyx9k-Q1iMx-451" value="Rechteverwaltung" style="ellipse;whiteSpace=wrap;html=1;" vertex="1" parent="1">
          <mxGeometry y="320" width="120" height="80" as="geometry" />
        </mxCell>
        <mxCell id="XZ7uIE0cHZyx9k-Q1iMx-452" value="" style="endArrow=none;dashed=1;html=1;rounded=0;entryX=0;entryY=0.5;entryDx=0;entryDy=0;exitX=1;exitY=0.5;exitDx=0;exitDy=0;" edge="1" parent="1" source="XZ7uIE0cHZyx9k-Q1iMx-443" target="XZ7uIE0cHZyx9k-Q1iMx-451">
          <mxGeometry width="50" height="50" relative="1" as="geometry">
            <mxPoint x="-60" y="520" as="sourcePoint" />
            <mxPoint x="-10" y="470" as="targetPoint" />
          </mxGeometry>
        </mxCell>
        <mxCell id="XZ7uIE0cHZyx9k-Q1iMx-453" value="Rechteverwaltung" style="ellipse;whiteSpace=wrap;html=1;" vertex="1" parent="1">
          <mxGeometry y="230" width="120" height="80" as="geometry" />
        </mxCell>
        <mxCell id="XZ7uIE0cHZyx9k-Q1iMx-454" value="" style="endArrow=none;dashed=1;html=1;rounded=0;entryX=0;entryY=0.5;entryDx=0;entryDy=0;exitX=1;exitY=0.5;exitDx=0;exitDy=0;" edge="1" parent="1" source="XZ7uIE0cHZyx9k-Q1iMx-441" target="XZ7uIE0cHZyx9k-Q1iMx-453">
          <mxGeometry width="50" height="50" relative="1" as="geometry">
            <mxPoint x="-40" y="370" as="sourcePoint" />
            <mxPoint x="10" y="370" as="targetPoint" />
          </mxGeometry>
        </mxCell>
      </root>
    </mxGraphModel>
  </diagram>
</mxfile>
